<?xml version='1.0' encoding='UTF-8'?>
<svg xmlns="http://www.w3.org/2000/svg" version="1.1" width="13" height="13" viewBox="171.7 440.3 356.4 356.4"><path d="M0 0 C1.11 -0.01 2.22 -0.01 3.37 -0.02 C4.58 -0.02 5.79 -0.01 7.03 -0.01 C8.32 -0.01 9.62 -0.02 10.95 -0.02 C14.53 -0.04 18.12 -0.04 21.7 -0.03 C25.57 -0.03 29.44 -0.04 33.3 -0.05 C40.88 -0.07 48.45 -0.08 56.02 -0.08 C62.18 -0.08 68.34 -0.08 74.5 -0.09 C91.96 -0.11 109.42 -0.12 126.88 -0.11 C127.82 -0.11 128.76 -0.11 129.73 -0.11 C131.14 -0.11 131.14 -0.11 132.59 -0.11 C147.86 -0.11 163.13 -0.13 178.4 -0.16 C194.08 -0.19 209.77 -0.2 225.45 -0.2 C234.25 -0.2 243.06 -0.21 251.86 -0.23 C259.36 -0.24 266.85 -0.25 274.35 -0.24 C278.17 -0.23 281.99 -0.23 285.82 -0.25 C289.96 -0.27 294.11 -0.25 298.26 -0.24 C299.46 -0.25 300.67 -0.26 301.91 -0.27 C310.18 -0.2 316.66 0.84 322.86 6.61 C324.66 9.83 324.85 11.94 324.88 15.62 C324.91 17.55 324.91 17.55 324.94 19.52 C324.94 20.94 324.94 22.36 324.95 23.78 C324.96 25.28 324.98 26.78 325 28.29 C325.04 32.39 325.06 36.49 325.07 40.59 C325.09 44.08 325.12 47.57 325.15 51.05 C325.26 63.12 325.3 75.19 325.34 87.26 C325.34 88.16 325.34 89.06 325.34 90 C325.42 117.81 325.39 145.63 325.34 173.44 C325.31 187.1 325.29 200.76 325.28 214.42 C325.27 217.03 325.27 219.65 325.27 222.26 C325.24 243.54 325.3 264.81 326.16 286.08 C326.46 294.39 326.15 302.12 324.34 310.26 C323.68 310.26 323.02 310.26 322.34 310.26 C322.01 311.25 321.68 312.24 321.34 313.26 C314.46 317.83 308.32 317.82 300.23 317.77 C298.27 317.77 298.27 317.77 296.26 317.78 C292.63 317.8 289 317.79 285.37 317.78 C281.45 317.77 277.53 317.79 273.62 317.8 C265.94 317.81 258.27 317.81 250.6 317.8 C244.37 317.79 238.13 317.79 231.9 317.79 C230.57 317.79 230.57 317.79 229.21 317.79 C227.41 317.8 225.6 317.8 223.8 317.8 C206.89 317.81 189.99 317.8 173.08 317.78 C158.58 317.76 144.07 317.76 129.57 317.78 C112.72 317.8 95.88 317.81 79.03 317.8 C77.23 317.8 75.44 317.79 73.64 317.79 C72.76 317.79 71.87 317.79 70.96 317.79 C64.73 317.79 58.51 317.79 52.28 317.8 C44.69 317.81 37.1 317.81 29.51 317.79 C25.64 317.78 21.77 317.77 17.9 317.79 C13.7 317.8 9.51 317.79 5.31 317.77 C4.09 317.77 2.86 317.78 1.6 317.79 C-5.04 317.73 -9.25 317.22 -14.66 313.26 C-14.66 312.6 -14.66 311.94 -14.66 311.26 C-15.32 311.26 -15.98 311.26 -16.66 311.26 C-19.33 307.26 -19.13 303.64 -19.28 298.98 C-19.32 297.94 -19.36 296.91 -19.39 295.84 C-19.96 277.59 -19.81 259.32 -19.8 241.06 C-19.8 235.37 -19.8 229.69 -19.8 224.01 C-19.8 214.43 -19.8 204.85 -19.79 195.28 C-19.79 185.58 -19.79 175.89 -19.79 166.19 C-19.81 140.92 -19.8 115.66 -19.71 90.39 C-19.71 88.3 -19.7 86.21 -19.69 84.13 C-19.69 83.12 -19.69 82.11 -19.69 81.06 C-19.66 73.75 -19.67 66.43 -19.68 59.12 C-19.68 53.08 -19.67 47.03 -19.62 40.99 C-19.6 37.71 -19.6 34.43 -19.61 31.15 C-19.63 27.69 -19.6 24.24 -19.56 20.79 C-19.58 19.82 -19.59 18.85 -19.61 17.85 C-19.47 11.67 -17.92 8.38 -13.75 3.83 C-9.59 0.69 -5.1 0.01 0 0 Z M-4.66 92.26 C-4.68 126.72 -4.71 161.19 -4.73 196.69 C-4.74 207.6 -4.74 218.5 -4.75 229.73 C-4.76 239.46 -4.76 239.46 -4.76 249.19 C-4.76 253.54 -4.76 257.89 -4.77 262.24 C-4.78 267.78 -4.78 273.32 -4.78 278.86 C-4.78 280.9 -4.78 282.94 -4.78 284.98 C-4.79 287.72 -4.79 290.46 -4.78 293.2 C-4.79 294.01 -4.79 294.82 -4.79 295.66 C-5.12 299.25 -5.12 299.25 -3.66 302.26 C-2 302.36 -0.34 302.38 1.33 302.38 C2.42 302.39 3.51 302.39 4.63 302.39 C5.84 302.39 7.05 302.39 8.29 302.38 C10.21 302.39 10.21 302.39 12.16 302.39 C15.71 302.39 19.26 302.39 22.81 302.39 C26.64 302.39 30.47 302.39 34.29 302.39 C41.79 302.4 49.29 302.4 56.79 302.39 C62.89 302.39 68.98 302.39 75.07 302.39 C75.94 302.39 76.8 302.39 77.7 302.39 C79.45 302.39 81.21 302.39 82.97 302.39 C99.47 302.4 115.98 302.39 132.48 302.39 C146.66 302.38 160.84 302.38 175.01 302.39 C191.46 302.39 207.9 302.4 224.34 302.39 C226.1 302.39 227.85 302.39 229.6 302.39 C230.46 302.39 231.32 302.39 232.21 302.39 C238.3 302.39 244.39 302.39 250.48 302.39 C257.9 302.4 265.31 302.4 272.73 302.39 C276.51 302.39 280.3 302.39 284.09 302.39 C288.19 302.39 292.28 302.39 296.38 302.38 C298.19 302.39 298.19 302.39 300.05 302.39 C301.68 302.39 301.68 302.39 303.34 302.38 C304.29 302.38 305.24 302.38 306.21 302.38 C308.32 302.49 308.32 302.49 309.34 301.26 C309.43 298.56 309.47 295.9 309.46 293.2 C309.46 292.35 309.46 291.5 309.46 290.62 C309.46 287.73 309.46 284.85 309.45 281.96 C309.45 279.87 309.45 277.77 309.45 275.68 C309.45 270.06 309.44 264.43 309.44 258.8 C309.43 253.53 309.43 248.26 309.43 242.99 C309.43 227.56 309.41 212.13 309.4 196.69 C309.37 145 309.37 145 309.34 92.26 C205.72 92.26 102.1 92.26 -4.66 92.26 Z " fill="#626262" fill-rule="evenodd" transform="translate(196.6638536453247,459.74273109436035)" /><path d="M0 0 C78.87 0 157.74 0 239 0 C239 4.62 239 9.24 239 14 C160.13 14 81.26 14 0 14 C0 9.38 0 4.76 0 0 Z " fill="#696969" transform="translate(228,651)" /><path d="M0 0 C56.1 0 112.2 0 170 0 C170 4.29 170 8.58 170 13 C113.9 13 57.8 13 0 13 C0 8.71 0 4.42 0 0 Z " fill="#605F5F" transform="translate(228,598)" /><path d="M0 0 C36.96 0 73.92 0 112 0 C112 4.62 112 9.24 112 14 C97.54 14.02 83.09 14.04 68.63 14.05 C61.92 14.06 55.21 14.06 48.5 14.08 C42.03 14.09 35.56 14.09 29.09 14.09 C26.61 14.1 24.14 14.1 21.66 14.11 C18.21 14.11 14.76 14.11 11.3 14.11 C10.27 14.12 9.23 14.12 8.17 14.12 C7.23 14.12 6.3 14.12 5.33 14.12 C4.52 14.12 3.7 14.12 2.86 14.12 C1 14 1 14 0 13 C0 8.71 0 4.42 0 0 Z " fill="#6A6A6A" transform="translate(228,705)" /><path d="M0 0 C4.42 2.87 7.54 6.5 9.86 11.2 C10.15 14.75 10.15 14.75 10.04 18.52 C10 20.4 10 20.4 9.96 22.32 C9.93 23.27 9.89 24.22 9.86 25.2 C9.2 25.2 8.54 25.2 7.86 25.2 C7.65 25.92 7.44 26.65 7.23 27.39 C5.09 31.76 1.72 34.14 -2.46 36.52 C-9.01 38.19 -14.5 37.74 -20.42 34.41 C-23.89 31.98 -25.83 28.67 -28.14 25.2 C-28.88 18.11 -29.02 11.33 -25.14 5.2 C-17.83 -2.56 -9.79 -5.38 0 0 Z " fill="#656464" transform="translate(244.14453125,488.796875)" /></svg>