<?xml version='1.0' encoding='UTF-8'?>
<svg xmlns="http://www.w3.org/2000/svg" version="1.1" width="13" height="13" viewBox="727.6 439.7 357.5 357.5"><path d="M0 0 C1.67 -0.01 1.67 -0.01 3.37 -0.02 C4.58 -0.01 5.79 -0.01 7.04 -0.01 C8.33 -0.01 9.63 -0.01 10.96 -0.02 C14.55 -0.03 18.14 -0.03 21.72 -0.02 C25.6 -0.02 29.47 -0.03 33.34 -0.04 C40.92 -0.05 48.5 -0.05 56.08 -0.05 C62.24 -0.05 68.41 -0.05 74.57 -0.05 C75.45 -0.05 76.32 -0.05 77.23 -0.05 C79.01 -0.06 80.79 -0.06 82.57 -0.06 C99.28 -0.07 115.99 -0.07 132.69 -0.06 C147.98 -0.05 163.26 -0.07 178.55 -0.09 C194.24 -0.1 209.94 -0.11 225.63 -0.11 C234.44 -0.11 243.26 -0.11 252.07 -0.12 C259.57 -0.14 267.07 -0.14 274.57 -0.13 C278.4 -0.12 282.22 -0.12 286.05 -0.13 C290.2 -0.14 294.35 -0.13 298.49 -0.12 C299.7 -0.13 300.91 -0.13 302.16 -0.14 C310 -0.09 316.33 0.7 322.33 6.25 C324.2 9.32 324.58 11.62 324.59 15.19 C324.6 16.19 324.6 17.19 324.61 18.22 C324.61 19.31 324.6 20.41 324.6 21.54 C324.61 23.29 324.61 23.29 324.62 25.07 C324.63 28.31 324.63 31.54 324.63 34.78 C324.63 38.27 324.65 41.76 324.66 45.25 C324.68 51.3 324.69 57.35 324.7 63.4 C324.71 72.15 324.73 80.91 324.75 89.66 C324.79 103.88 324.83 118.09 324.85 132.31 C324.86 133.16 324.86 134.01 324.86 134.89 C324.86 135.74 324.86 136.59 324.86 137.47 C324.89 149.54 324.91 161.61 324.94 173.68 C324.94 174.53 324.94 175.38 324.94 176.25 C324.98 190.41 325.01 204.56 325.05 218.72 C325.07 227.45 325.09 236.18 325.1 244.91 C325.11 250.9 325.13 256.88 325.14 262.87 C325.15 266.32 325.16 269.77 325.16 273.23 C325.16 276.97 325.17 280.72 325.19 284.46 C325.19 285.55 325.19 286.64 325.18 287.75 C325.2 292.16 325.28 296.43 325.9 300.8 C326.44 305.12 325.81 306.7 323.33 310.25 C319.6 314.01 316.41 317.09 310.9 317.38 C309.93 317.38 308.95 317.38 307.95 317.39 C306.83 317.39 305.7 317.39 304.54 317.4 C303.3 317.4 302.06 317.4 300.79 317.39 C298.82 317.4 298.82 317.4 296.81 317.4 C293.15 317.41 289.5 317.41 285.85 317.41 C281.91 317.42 277.97 317.42 274.04 317.43 C265.43 317.44 256.81 317.45 248.2 317.45 C242.83 317.46 237.45 317.46 232.08 317.47 C217.2 317.48 202.32 317.49 187.44 317.49 C186.02 317.49 186.02 317.49 184.56 317.49 C183.6 317.49 182.65 317.49 181.66 317.49 C179.73 317.49 177.8 317.49 175.86 317.49 C174.9 317.49 173.94 317.5 172.95 317.5 C157.4 317.5 141.84 317.52 126.29 317.54 C110.33 317.56 94.36 317.58 78.4 317.58 C69.44 317.58 60.47 317.58 51.51 317.6 C43.87 317.62 36.24 317.62 28.61 317.61 C24.71 317.61 20.82 317.61 16.92 317.63 C12.7 317.64 8.48 317.63 4.26 317.62 C3.02 317.63 1.79 317.64 0.52 317.65 C-6.6 317.6 -11.36 317.11 -16.92 312.32 C-20 308.69 -20.92 305.95 -20.92 301.2 C-20.93 300.18 -20.94 299.15 -20.94 298.1 C-20.94 296.97 -20.93 295.85 -20.93 294.69 C-20.93 293.49 -20.94 292.3 -20.94 291.07 C-20.95 287.75 -20.95 284.43 -20.95 281.11 C-20.94 277.53 -20.95 273.95 -20.96 270.37 C-20.97 263.35 -20.97 256.34 -20.97 249.32 C-20.97 243.62 -20.97 237.92 -20.98 232.22 C-20.98 231 -20.98 231 -20.98 229.76 C-20.98 228.11 -20.98 226.47 -20.98 224.82 C-20.99 209.37 -20.99 193.91 -20.98 178.46 C-20.98 164.31 -20.99 150.17 -21.01 136.03 C-21.03 121.52 -21.04 107 -21.03 92.48 C-21.03 84.33 -21.03 76.18 -21.05 68.03 C-21.06 61.09 -21.06 54.15 -21.05 47.21 C-21.04 43.67 -21.04 40.13 -21.05 36.59 C-21.07 32.75 -21.06 28.91 -21.04 25.07 C-21.05 23.39 -21.05 23.39 -21.07 21.68 C-21.03 16.13 -20.89 11.99 -17.67 7.25 C-12.33 2.03 -7.43 0.01 0 0 Z M-5.67 92.25 C-5.69 126.72 -5.71 161.18 -5.73 196.69 C-5.74 207.59 -5.75 218.5 -5.76 229.73 C-5.76 239.46 -5.76 239.46 -5.76 249.19 C-5.77 253.54 -5.77 257.89 -5.78 262.24 C-5.78 267.78 -5.78 273.32 -5.78 278.86 C-5.78 280.9 -5.78 282.94 -5.79 284.98 C-5.79 287.72 -5.79 290.46 -5.79 293.2 C-5.79 294.01 -5.8 294.82 -5.8 295.65 C-6.13 299.25 -6.13 299.25 -4.67 302.25 C-3.01 302.35 -1.34 302.38 0.32 302.38 C1.41 302.38 2.5 302.39 3.62 302.39 C4.83 302.39 6.04 302.38 7.29 302.38 C9.2 302.38 9.2 302.38 11.15 302.39 C14.7 302.39 18.26 302.39 21.81 302.39 C25.63 302.38 29.46 302.39 33.29 302.39 C40.79 302.39 48.29 302.39 55.79 302.39 C61.88 302.39 67.97 302.39 74.07 302.39 C74.93 302.39 75.8 302.39 76.69 302.39 C78.45 302.39 80.21 302.39 81.96 302.39 C98.47 302.39 114.97 302.39 131.48 302.38 C145.65 302.38 159.83 302.38 174.01 302.38 C190.45 302.39 206.9 302.39 223.34 302.39 C225.09 302.39 226.84 302.39 228.59 302.39 C229.46 302.39 230.32 302.39 231.21 302.39 C237.3 302.39 243.38 302.39 249.47 302.39 C256.89 302.39 264.31 302.39 271.72 302.39 C275.51 302.38 279.3 302.38 283.08 302.39 C287.18 302.39 291.28 302.39 295.37 302.38 C297.19 302.38 297.19 302.38 299.04 302.39 C300.67 302.38 300.67 302.38 302.34 302.38 C303.28 302.38 304.23 302.38 305.21 302.38 C307.32 302.49 307.32 302.49 308.33 301.25 C308.43 298.56 308.46 295.89 308.45 293.2 C308.45 292.35 308.45 291.5 308.45 290.62 C308.46 287.73 308.45 284.84 308.44 281.96 C308.44 279.86 308.44 277.77 308.44 275.68 C308.44 270.05 308.44 264.43 308.43 258.8 C308.43 253.53 308.43 248.26 308.43 242.99 C308.42 227.56 308.41 212.12 308.39 196.69 C308.36 145 308.36 145 308.33 92.25 C204.71 92.25 101.09 92.25 -5.67 92.25 Z " fill="#98989A" fill-rule="evenodd" transform="translate(753.6694402694702,459.7455244064331)" /><path d="M0 0 C78.87 0 157.74 0 239 0 C239 4.62 239 9.24 239 14 C160.13 14 81.26 14 0 14 C0 9.38 0 4.76 0 0 Z " fill="#9B9B9D" transform="translate(784,651)" /><path d="M0 0 C56.1 0 112.2 0 170 0 C170 4.29 170 8.58 170 13 C113.9 13 57.8 13 0 13 C0 8.71 0 4.42 0 0 Z " fill="#959597" transform="translate(784,598)" /><path d="M0 0 C36.63 0 73.26 0 111 0 C111 4.62 111 9.24 111 14 C74.37 14 37.74 14 0 14 C0 9.38 0 4.76 0 0 Z " fill="#9D9D9E" transform="translate(784,705)" /><path d="M0 0 C5.05 2.78 9.36 7.34 11.94 12.5 C12.5 19.05 12.43 24.75 8.94 30.5 C5.22 34.38 1.1 38.09 -4.39 38.8 C-9.96 38.83 -14.2 38.49 -19.06 35.5 C-23.91 30.33 -27.08 25.21 -27.38 18.06 C-27.2 12.62 -25.87 9.32 -21.96 5.39 C-15.25 -0.76 -8.9 -3.93 0 0 Z " fill="#989899" transform="translate(797.0625,487.5)" /></svg>